<?xml version="1.0" standalone="no"?>
<!DOCTYPE svg PUBLIC "-//W3C//DTD SVG 20010904//EN"
 "http://www.w3.org/TR/2001/REC-SVG-20010904/DTD/svg10.dtd">
<svg version="1.0" xmlns="http://www.w3.org/2000/svg"
 width="787.000000pt" height="363.000000pt" viewBox="0 0 787.000000 363.000000"
 preserveAspectRatio="xMidYMid meet">

<g transform="translate(0.000000,363.000000) scale(0.100000,-0.100000)"
fill="#000000" stroke="none">
<path d="M1459 3064 c-48 -50 -177 -146 -253 -189 -84 -47 -169 -80 -264 -102
-101 -23 -360 -23 -477 1 -44 9 -84 16 -88 16 -4 0 -6 -282 -5 -627 l3 -628
24 -70 c89 -266 302 -498 651 -710 95 -58 303 -161 414 -205 l58 -23 57 27
c178 87 399 226 555 350 256 203 413 412 466 621 19 74 20 111 20 673 l0 595
-32 -7 c-155 -31 -475 -32 -598 -1 -132 32 -312 140 -446 267 l-50 48 -35 -36z
m124 -157 c120 -97 241 -162 363 -197 134 -39 355 -48 547 -23 l48 6 -3 -554
c-4 -615 -1 -586 -75 -734 -126 -253 -470 -545 -894 -760 l-50 -26 -111 48
c-425 181 -763 458 -890 729 -63 134 -61 117 -65 733 l-4 564 23 -7 c13 -4
102 -10 198 -13 150 -4 189 -2 270 15 177 37 332 111 480 230 63 51 77 58 90
48 8 -7 41 -34 73 -59z"/>
<path d="M1265 2225 c-516 -84 -749 -371 -489 -604 158 -141 454 -220 779
-207 301 11 525 83 666 214 72 66 102 125 101 198 -1 171 -197 315 -522 386
-126 27 -406 34 -535 13z m554 -84 c52 -11 99 -25 105 -31 41 -42 -378 -229
-511 -230 -100 0 -118 61 -54 187 28 57 51 84 81 97 30 12 285 -3 379 -23z
m-596 3 c3 -4 -9 -25 -27 -48 -60 -74 -150 -220 -216 -355 -36 -72 -69 -131
-75 -131 -23 1 -108 74 -136 117 -102 162 66 336 396 412 53 12 51 12 58 5z
m903 -125 c52 -32 110 -104 122 -152 35 -138 -111 -272 -368 -341 -92 -24
-110 -27 -110 -17 0 6 23 40 50 76 67 88 157 241 211 359 24 53 48 96 53 96 5
0 24 -9 42 -21z m-478 -265 c17 -11 22 -25 22 -57 0 -54 -47 -154 -89 -190
-30 -25 -39 -27 -124 -27 -144 0 -397 44 -397 69 0 14 104 79 185 117 192 89
352 124 403 88z"/>
<path d="M7350 2535 l0 -85 80 0 80 0 0 85 0 85 -80 0 -80 0 0 -85z"/>
<path d="M6400 2433 l0 -156 -22 21 c-64 59 -185 79 -283 45 -69 -23 -146
-101 -174 -176 -29 -78 -29 -205 -1 -280 67 -179 292 -253 440 -146 l40 29 0
-30 0 -30 80 0 80 0 0 440 0 440 -80 0 -80 0 0 -157z m-92 -229 c20 -8 49 -27
65 -41 26 -26 27 -30 27 -134 0 -93 -3 -110 -21 -133 -31 -39 -77 -59 -139
-60 -101 0 -170 61 -178 159 -6 77 5 120 41 162 54 62 129 79 205 47z"/>
<path d="M3080 2130 l0 -420 80 0 80 0 0 175 0 175 210 0 210 0 0 -175 0 -175
80 0 80 0 0 420 0 420 -80 0 -80 0 -2 -172 -3 -173 -205 0 -205 0 -3 173 -2
172 -80 0 -80 0 0 -420z"/>
<path d="M5495 2341 c-22 -10 -52 -30 -67 -44 l-27 -25 -3 36 -3 37 -77 3 -78
3 0 -321 0 -320 80 0 80 0 0 206 c0 232 3 245 70 283 47 26 105 27 147 1 58
-35 63 -56 63 -285 l0 -205 80 0 80 0 0 218 c0 246 -9 297 -63 359 -17 20 -50
44 -72 54 -54 25 -157 25 -210 0z"/>
<path d="M6813 2343 c-56 -19 -136 -92 -162 -147 -65 -139 -38 -329 61 -423
96 -93 264 -107 368 -32 l40 29 0 -30 0 -30 80 0 80 0 0 320 0 320 -80 0 -80
0 0 -37 0 -36 -22 21 c-63 58 -191 79 -285 45z m215 -139 c20 -8 49 -27 65
-41 26 -26 27 -30 27 -136 l0 -110 -35 -32 c-89 -85 -246 -57 -291 52 -22 52
-18 143 9 193 41 78 139 110 225 74z"/>
<path d="M3853 2338 c3 -7 61 -132 128 -278 l122 -265 -15 -40 c-8 -22 -38
-91 -66 -153 l-51 -113 87 3 87 3 182 415 c100 228 183 421 183 428 0 10 -20
12 -82 10 l-83 -3 -75 -182 c-41 -101 -77 -183 -80 -183 -3 0 -42 82 -87 183
l-82 182 -87 3 c-68 2 -85 0 -81 -10z"/>
<path d="M4562 2108 c4 -258 7 -276 58 -341 71 -90 245 -101 338 -21 22 19 42
34 44 34 2 0 2 -16 0 -35 l-4 -35 81 0 81 0 0 320 0 321 -77 -3 -78 -3 -5
-217 -5 -217 -30 -31 c-50 -52 -133 -61 -194 -22 -45 30 -51 65 -51 287 l0
205 -81 0 -81 0 4 -242z"/>
<path d="M7350 2030 l0 -320 80 0 80 0 0 320 0 320 -80 0 -80 0 0 -320z"/>
<path d="M3201 1368 c-104 -269 -121 -312 -121 -321 0 -4 19 -7 42 -5 39 3 42
6 57 46 l15 42 96 0 96 0 14 -42 c14 -41 17 -43 59 -46 39 -3 43 -1 37 15 -4
10 -41 107 -83 216 l-76 197 -48 0 -47 0 -41 -102z m123 -83 c14 -39 26 -74
26 -78 0 -4 -27 -7 -60 -7 -39 0 -60 4 -60 12 0 23 54 157 61 150 3 -4 18 -39
33 -77z"/>
<path d="M3564 1336 c-23 -23 -34 -43 -34 -64 0 -37 31 -78 67 -86 94 -23 103
-27 103 -46 0 -21 -27 -40 -58 -40 -11 0 -35 11 -55 24 l-35 24 -23 -24 c-17
-19 -20 -26 -10 -38 36 -43 154 -61 211 -31 78 41 66 159 -18 180 -85 20 -102
27 -102 41 0 27 43 37 85 20 35 -15 40 -15 57 0 25 23 23 31 -14 54 -22 13
-51 20 -86 20 -48 0 -58 -4 -88 -34z"/>
<path d="M3871 1356 c-51 -28 -65 -95 -30 -139 18 -24 38 -32 122 -51 50 -12
25 -66 -31 -66 -11 0 -35 11 -55 24 l-35 24 -23 -24 c-17 -19 -20 -26 -10 -38
22 -26 78 -46 131 -46 86 0 129 36 130 107 0 34 -5 46 -31 67 -17 14 -38 26
-47 26 -37 0 -92 22 -92 36 0 28 44 38 83 19 38 -18 51 -15 67 16 24 44 -116
80 -179 45z"/>
<path d="M4520 1224 c0 -137 10 -172 57 -193 37 -17 95 -13 131 9 l32 20 0
-21 c0 -17 5 -20 38 -17 l37 3 0 160 0 160 -37 3 -38 3 0 -106 c0 -99 -2 -107
-25 -130 -30 -31 -75 -33 -101 -4 -15 17 -19 40 -22 130 l-4 109 -34 0 -34 0
0 -126z"/>
<path d="M4872 1188 l3 -163 38 -3 37 -3 0 99 c0 112 14 144 70 155 27 6 30
11 30 42 0 30 -3 35 -24 35 -13 0 -35 -9 -50 -21 l-26 -20 0 20 c0 18 -6 21
-40 21 l-40 0 2 -162z"/>
<path d="M5136 1331 c-49 -32 -71 -78 -71 -146 0 -69 25 -119 73 -147 37 -22
121 -24 148 -3 25 19 34 19 34 -1 0 -12 9 -14 38 -12 l37 3 0 160 0 160 -37 3
c-29 2 -38 0 -38 -12 0 -19 -8 -20 -40 -1 -36 21 -109 19 -144 -4z m159 -76
c19 -18 25 -35 25 -70 0 -35 -6 -52 -25 -70 -47 -48 -135 -21 -149 45 -7 37
14 93 41 109 33 19 82 13 108 -14z"/>
<path d="M5445 1338 c-3 -8 -4 -81 -3 -163 l3 -150 40 0 40 0 3 110 c2 98 5
112 23 128 22 17 65 22 85 9 25 -17 34 -56 34 -152 l0 -101 38 3 37 3 0 115
c0 130 -12 173 -56 195 -35 19 -96 19 -129 0 -31 -18 -41 -18 -37 -2 3 17 -72
22 -78 5z"/>
<path d="M5864 1336 c-17 -8 -42 -29 -55 -47 -20 -28 -24 -46 -24 -104 0 -58
4 -76 24 -104 29 -40 75 -61 136 -61 50 0 77 10 113 43 28 26 27 38 -3 60 -23
17 -25 16 -49 -8 -34 -34 -88 -34 -121 0 -19 18 -25 35 -25 70 0 35 6 52 25
70 33 34 87 34 121 0 24 -24 26 -25 49 -8 13 10 25 23 25 29 0 13 -36 47 -67
63 -29 15 -111 13 -149 -3z"/>
<path d="M6181 1328 c-52 -36 -73 -82 -69 -153 4 -72 30 -114 84 -140 48 -23
143 -17 181 11 35 26 37 36 15 64 l-19 24 -28 -22 c-39 -31 -98 -30 -130 3
-14 13 -25 29 -25 35 0 6 42 10 116 10 l116 0 -4 56 c-4 47 -10 61 -41 92 -33
32 -43 36 -99 40 -53 3 -68 0 -97 -20z m142 -65 c35 -33 21 -43 -58 -43 -76 0
-85 4 -62 32 31 40 82 44 120 11z"/>
<path d="M4150 1215 l0 -45 125 0 125 0 0 45 0 45 -125 0 -125 0 0 -45z"/>
</g>
</svg>
