<?xml version="1.0" standalone="no"?>
<!DOCTYPE svg PUBLIC "-//W3C//DTD SVG 20010904//EN"
 "http://www.w3.org/TR/2001/REC-SVG-20010904/DTD/svg10.dtd">
<svg version="1.0" xmlns="http://www.w3.org/2000/svg"
 width="1500.000000pt" height="564.000000pt" viewBox="0 0 1500.000000 564.000000"
 preserveAspectRatio="xMidYMid meet">

<g transform="translate(0.000000,564.000000) scale(0.100000,-0.100000)"
fill="#000000" stroke="none">
<path d="M6895 5559 c-1083 -42 -2092 -277 -2900 -674 -426 -209 -727 -416
-995 -685 -299 -300 -485 -629 -546 -970 -23 -128 -23 -362 0 -490 87 -482
427 -946 973 -1326 324 -227 772 -447 1227 -603 1155 -397 2599 -511 3936
-310 974 147 1851 462 2482 891 934 637 1254 1481 858 2268 -172 342 -475 662
-885 934 -186 124 -323 202 -540 307 -984 476 -2273 711 -3610 658z m1080
-113 c618 -55 1141 -152 1647 -305 753 -228 1377 -562 1790 -959 268 -258 426
-493 518 -771 159 -481 47 -975 -324 -1418 -159 -191 -424 -419 -668 -577
-111 -71 -332 -196 -347 -196 -6 0 -350 192 -763 426 -414 235 -797 451 -850
481 -54 30 -98 58 -98 62 0 5 9 16 20 26 26 23 25 36 -5 58 -23 17 -25 16 -49
-8 -32 -32 -62 -32 -109 0 -34 23 -37 30 -37 71 0 34 6 51 25 69 33 34 87 34
121 0 24 -24 26 -25 49 -8 30 22 31 34 3 60 -36 33 -63 43 -113 43 -86 0 -150
-49 -162 -125 -6 -40 -33 -49 -33 -10 0 44 -31 105 -61 120 -36 19 -92 19
-129 0 -25 -13 -29 -13 -34 0 -3 8 -15 15 -26 15 -18 0 -769 417 -794 440 -5
6 37 115 102 264 62 140 112 259 112 266 0 7 -26 10 -82 8 l-83 -3 -75 -182
c-41 -101 -77 -183 -80 -183 -3 0 -43 82 -87 183 l-81 182 -86 3 c-47 1 -86 1
-86 0 0 -2 38 -86 85 -187 47 -101 84 -186 81 -188 -2 -2 -47 20 -100 49 l-96
53 0 238 0 237 -80 0 -80 0 -2 -172 -3 -173 -35 3 c-21 2 -103 41 -207 100
l-173 97 0 73 0 72 -80 0 c-75 0 -80 -1 -80 -21 0 -16 -5 -20 -19 -16 -46 12
-434 241 -438 258 -4 13 -14 19 -34 19 -19 0 -299 153 -851 466 -453 256 -825
467 -826 469 -7 6 68 41 223 103 664 267 1449 438 2250 492 88 6 180 12 205
14 124 10 967 -3 1135 -18z m-3731 -745 c105 -60 463 -262 796 -451 333 -188
609 -346 615 -351 16 -15 -264 -10 -361 6 -158 28 -327 119 -479 258 l-70 64
-65 -59 c-135 -124 -308 -220 -467 -260 -74 -18 -115 -22 -253 -21 -110 0
-192 6 -245 17 -44 9 -84 16 -88 16 -4 0 -6 -282 -5 -627 l3 -628 24 -70 c89
-266 302 -498 651 -710 95 -58 303 -161 414 -205 l59 -24 95 49 c226 115 447
263 622 418 187 165 314 354 361 534 18 71 19 114 19 596 0 490 1 519 18 514
9 -2 112 -59 227 -125 l210 -120 3 -341 2 -341 80 0 80 0 0 175 0 175 208 -2
207 -3 3 -172 2 -173 80 0 79 0 3 129 3 130 135 -78 c127 -72 135 -79 134
-107 -1 -16 -28 -87 -61 -159 l-59 -130 74 -3 c42 -2 80 -1 87 2 6 2 33 54 60
116 38 87 53 110 66 107 24 -6 637 -356 644 -367 8 -14 2 -13 -31 5 -41 21
-110 19 -148 -4 -48 -30 -71 -76 -71 -146 0 -70 23 -116 71 -146 38 -23 121
-26 150 -4 25 19 34 19 34 -1 0 -12 9 -14 38 -12 l37 3 5 132 c5 122 6 131 22
119 14 -11 18 -33 20 -132 l3 -119 40 0 40 0 3 93 c1 50 5 92 8 92 9 0 97 -52
117 -68 12 -11 17 -30 17 -69 l0 -54 38 3 c33 3 38 6 42 34 l5 32 70 -40 c68
-39 705 -399 1440 -815 198 -112 364 -208 369 -213 11 -11 -97 -62 -304 -147
-607 -249 -1324 -417 -2080 -487 -569 -54 -1281 -46 -1845 20 -1324 153 -2479
608 -3127 1232 -266 256 -427 495 -517 767 -50 153 -71 277 -71 430 0 661 493
1284 1391 1759 68 36 126 66 128 66 2 0 90 -49 195 -109z m589 -664 c120 -97
241 -162 363 -197 134 -39 355 -48 547 -23 l48 6 -3 -554 c-4 -615 -1 -586
-75 -734 -126 -253 -470 -545 -894 -760 l-50 -26 -97 41 c-127 54 -303 149
-422 228 -281 188 -445 379 -521 607 -23 69 -23 75 -27 634 l-3 564 23 -7 c13
-4 102 -10 198 -13 150 -4 189 -2 270 15 177 37 332 111 480 230 63 51 77 58
90 48 8 -7 41 -34 73 -59z m1782 -679 c28 -17 29 -18 8 -20 -13 -1 -38 -3 -55
-4 -67 -6 -78 2 -78 52 l0 45 48 -28 c26 -15 61 -35 77 -45z m1515 -946 c16
-13 24 -32 27 -69 5 -45 2 -55 -20 -77 -47 -47 -135 -24 -151 40 -9 34 10 90
37 109 29 20 80 19 107 -3z m345 8 c3 -6 -1 -7 -9 -4 -18 7 -21 14 -7 14 6 0
13 -4 16 -10z"/>
<path d="M10600 3665 l0 -85 80 0 80 0 0 85 0 85 -80 0 -80 0 0 -85z"/>
<path d="M9650 3563 l0 -156 -22 21 c-63 58 -185 79 -281 46 -61 -21 -132 -84
-164 -148 -23 -43 -28 -67 -31 -151 -5 -117 15 -184 73 -253 93 -108 273 -132
385 -51 l40 29 0 -30 0 -30 80 0 80 0 0 440 0 440 -80 0 -80 0 0 -157z m-92
-229 c20 -8 49 -27 65 -41 26 -26 27 -30 27 -134 0 -93 -3 -110 -21 -133 -31
-39 -77 -59 -139 -60 -101 0 -170 61 -178 159 -6 77 5 120 41 162 54 62 129
79 205 47z"/>
<path d="M8745 3471 c-22 -10 -52 -30 -67 -44 l-27 -25 -3 36 -3 37 -77 3 -78
3 0 -321 0 -320 80 0 80 0 0 206 c0 232 3 245 70 283 47 26 105 27 147 1 58
-35 63 -56 63 -285 l0 -205 80 0 80 0 0 218 c0 246 -9 297 -63 359 -17 20 -50
44 -72 54 -54 25 -157 25 -210 0z"/>
<path d="M10063 3473 c-56 -19 -136 -92 -162 -147 -65 -139 -38 -329 61 -423
96 -93 264 -107 368 -32 l40 29 0 -30 0 -30 80 0 80 0 0 320 0 320 -80 0 -80
0 0 -37 0 -36 -22 21 c-63 58 -191 79 -285 45z m215 -139 c20 -8 49 -27 65
-41 26 -26 27 -30 27 -136 l0 -110 -35 -32 c-89 -85 -246 -57 -291 52 -22 52
-18 143 9 193 41 78 139 110 225 74z"/>
<path d="M7812 3238 c4 -258 7 -276 58 -341 71 -90 245 -101 338 -21 22 19 42
34 44 34 2 0 2 -16 0 -35 l-4 -35 81 0 81 0 0 320 0 321 -77 -3 -78 -3 -5
-217 -5 -217 -30 -31 c-50 -52 -133 -61 -194 -22 -45 30 -51 65 -51 287 l0
205 -81 0 -81 0 4 -242z"/>
<path d="M10600 3160 l0 -320 80 0 80 0 0 320 0 320 -80 0 -80 0 0 -320z"/>
<path d="M9021 2478 c-52 -36 -73 -82 -69 -153 4 -72 30 -114 84 -140 48 -23
143 -17 181 11 35 26 37 36 15 64 l-19 24 -28 -22 c-39 -31 -98 -30 -130 3
-14 13 -25 29 -25 35 0 6 42 10 116 10 l116 0 -4 56 c-4 47 -10 61 -41 92 -33
32 -43 36 -99 40 -53 3 -68 0 -97 -20z m142 -65 c35 -33 21 -43 -58 -43 -76 0
-85 4 -62 32 31 40 82 44 120 11z"/>
<path d="M6434 2453 c-31 -82 -67 -175 -80 -207 -13 -33 -24 -63 -24 -68 0 -5
19 -8 42 -6 39 3 42 6 57 46 l15 42 96 0 96 0 14 -42 c14 -41 17 -43 59 -46
39 -3 43 -1 37 15 -4 10 -41 107 -83 216 l-76 197 -48 0 -47 0 -58 -147z m140
-36 c14 -37 26 -72 26 -77 0 -6 -27 -10 -60 -10 -39 0 -60 4 -60 12 0 22 54
158 61 150 3 -4 18 -37 33 -75z"/>
<path d="M6814 2466 c-23 -23 -34 -43 -34 -64 0 -37 31 -78 67 -86 94 -23 103
-27 103 -46 0 -21 -27 -40 -58 -40 -11 0 -35 11 -55 24 l-35 24 -23 -24 c-17
-19 -20 -26 -10 -38 36 -43 154 -61 211 -31 78 41 66 159 -18 180 -85 20 -102
27 -102 41 0 27 43 37 85 20 35 -15 40 -15 57 0 25 23 23 31 -14 54 -22 13
-51 20 -86 20 -48 0 -58 -4 -88 -34z"/>
<path d="M7121 2486 c-51 -28 -65 -95 -30 -139 18 -24 38 -32 122 -51 18 -4
27 -13 27 -26 0 -44 -88 -51 -125 -10 -18 20 -18 20 -42 -2 -13 -12 -23 -25
-23 -29 0 -5 17 -20 37 -34 30 -20 50 -25 96 -25 93 0 136 34 137 107 0 34 -5
46 -31 67 -17 14 -38 26 -47 26 -9 0 -34 5 -54 11 -43 11 -50 34 -14 50 18 9
32 7 60 -6 35 -17 38 -17 56 0 27 25 25 32 -12 55 -38 23 -120 26 -157 6z"/>
<path d="M7360 2374 c0 -137 10 -172 57 -193 37 -17 95 -13 131 9 l32 20 0
-21 c0 -17 5 -20 38 -17 l37 3 0 160 0 160 -37 3 -38 3 0 -106 c0 -99 -2 -107
-25 -130 -30 -31 -75 -33 -101 -4 -15 17 -19 40 -22 130 l-4 109 -34 0 -34 0
0 -126z"/>
<path d="M7712 2338 l3 -163 38 -3 37 -3 0 99 c0 112 14 144 70 155 27 6 30
11 30 42 0 30 -3 35 -24 35 -13 0 -35 -9 -50 -21 l-26 -20 0 20 c0 18 -6 21
-40 21 l-40 0 2 -162z"/>
<path d="M4515 3355 c-359 -58 -595 -217 -595 -399 0 -189 241 -347 612 -402
133 -19 385 -14 508 11 248 50 450 165 511 291 96 199 -110 401 -496 485 -122
27 -413 34 -540 14z m554 -84 c108 -23 122 -32 97 -60 -30 -33 -226 -127 -344
-165 -187 -60 -261 -45 -248 50 10 77 70 179 116 198 30 12 285 -3 379 -23z
m-596 3 c3 -4 -9 -25 -27 -48 -60 -74 -150 -220 -216 -355 -36 -72 -69 -131
-75 -131 -23 1 -108 74 -136 117 -102 162 66 336 396 412 53 12 51 12 58 5z
m903 -125 c52 -32 110 -104 122 -152 35 -138 -111 -272 -368 -341 -92 -24
-110 -27 -110 -17 0 6 23 40 50 76 67 88 157 241 211 359 24 53 48 96 53 96 5
0 24 -9 42 -21z m-478 -265 c17 -11 22 -25 22 -57 0 -54 -47 -154 -89 -190
-30 -25 -39 -27 -124 -27 -144 0 -397 44 -397 69 0 14 104 79 185 117 192 89
352 124 403 88z"/>
</g>
</svg>
